<?xml version="1.0" encoding="utf-8"?>
<svg width="22" height="19" viewBox="0 0 22 19" fill="none" xmlns="http://www.w3.org/2000/svg">
  <path d="M 20.299 9.786 C 22.567 7.543 22.567 3.902 20.299 1.682 C 18.031 -0.561 14.349 -0.561 12.081 1.682 L 10.98 2.792 L 9.88 1.704 C 7.612 -0.561 3.93 -0.561 1.684 1.682 C 0.584 2.77 0 4.213 0 5.745 C 0 7.277 0.606 8.72 1.684 9.808 L 10.98 19 L 20.299 9.786 Z M 1.437 5.745 C 1.437 4.59 0.565 8.807 1.396 8.007 C 2.249 7.164 2.05 9.703 3.151 9.703 C 3.661 9.703 4.489 11.289 5.087 11.794 C 5.78 12.379 10.689 16.907 11.147 17.359 L 18.904 9.968 L 21.081 6.452 C 22.765 4.787 17.582 1.038 19.244 2.703 C 20.052 3.502 20.524 4.568 20.524 5.723 C 20.524 6.877 20.075 7.943 19.244 8.742 L 10.98 16.935 L 2.717 8.765 C 1.909 7.943 1.437 6.877 1.437 5.745 Z" fill="black"/>
</svg>